<svg version="1.1" id="Layer_1" xmlns="http://www.w3.org/2000/svg" xmlns:xlink="http://www.w3.org/1999/xlink" x="0px" y="0px"
	 width="100%" viewBox="0 0 512 512" enable-background="new 0 0 512 512" xml:space="preserve">
<path fill="#FFFFFF" opacity="1.000000" stroke="none" 
	d="
M513.000000,179.000000 
	C513.000000,290.639526 513.000000,401.779053 513.000000,512.959290 
	C342.402130,512.959290 171.804245,512.959290 1.103185,512.959290 
	C1.103185,342.443848 1.103185,171.887589 1.103185,1.165670 
	C171.666534,1.165670 342.333252,1.165670 513.000000,1.165670 
	C513.000000,60.195713 513.000000,119.347855 513.000000,179.000000 
M501.006805,346.125275 
	C497.750977,335.550629 492.366119,326.179260 484.993500,317.193878 
	C477.961487,310.019226 470.929443,302.844543 463.398621,295.116486 
	C463.086273,295.013275 462.710236,294.988983 462.470642,294.795654 
	C444.920685,280.629944 424.519196,273.242401 402.400574,271.169861 
	C382.394653,269.295288 362.729492,272.123749 344.239563,280.436432 
	C332.764587,285.595337 321.812866,291.775024 312.287903,301.215759 
	C306.579437,305.770203 300.871002,310.324646 295.162537,314.879120 
	C295.671021,316.313263 294.137634,315.737976 292.739441,314.929016 
	C281.241669,308.276794 268.840088,305.687103 255.611908,305.936890 
	C241.451248,306.204346 227.281128,305.972229 213.018570,305.039154 
	C213.012436,302.566895 213.272522,300.058289 212.941040,297.630463 
	C212.369034,293.441223 213.983856,291.224426 217.844162,289.432800 
	C221.850204,287.573486 225.336655,284.594635 229.760193,282.002167 
	C235.160110,277.521393 241.079788,273.526184 245.831177,268.439667 
	C252.073334,261.757263 257.395477,254.215469 263.727020,246.710297 
	C264.498657,245.286636 265.296967,243.876724 266.037628,242.437134 
	C271.159424,232.482025 275.513733,222.261398 277.001099,210.191895 
	C277.829956,206.243195 278.658844,202.294510 279.485840,198.354675 
	C290.828674,196.696808 300.492432,192.597382 305.766113,180.654068 
	C306.414642,178.675140 307.174438,176.724899 307.693268,174.712540 
	C310.561554,163.587189 304.309448,149.274780 294.004608,143.580353 
	C289.158173,141.999496 284.311737,140.418640 278.833344,138.631653 
	C278.833344,128.560028 278.833344,117.779671 278.973328,106.077477 
	C278.973328,102.166008 278.973328,98.254547 278.973328,93.999931 
	C284.666016,93.999931 289.760498,94.021019 294.854675,93.994598 
	C301.249603,93.961433 304.108551,91.174774 303.946564,84.664848 
	C303.841370,80.436951 303.222198,76.221832 302.703857,71.242950 
	C300.189270,60.761353 296.607208,50.738506 289.828491,41.329998 
	C275.523621,20.839046 255.891479,9.037965 230.968872,8.205564 
	C203.853195,7.299915 176.683701,7.943224 149.538055,8.029776 
	C139.591553,8.061490 131.130615,12.187608 123.891632,18.701014 
	C118.775101,23.304693 115.039154,30.110233 106.444946,28.272457 
	C106.316978,28.245092 106.156334,28.437807 105.998886,28.471516 
	C96.327118,30.542074 87.558487,34.503826 79.335228,41.173477 
	C69.326927,50.113869 62.306393,60.918221 58.226967,74.369675 
	C54.451191,85.390724 56.370575,96.760666 56.026897,108.928406 
	C56.026897,119.131569 56.026897,129.334732 56.026897,138.123581 
	C49.710148,140.641388 44.299675,142.797943 38.281963,145.221710 
	C29.841356,152.059402 25.833099,160.912079 27.072205,171.705521 
	C28.137957,180.988937 31.811192,188.905197 41.262691,193.759399 
	C46.055325,195.488632 50.847958,197.217865 54.300003,198.463394 
	C57.838684,210.308334 61.206940,221.582809 64.910706,233.459152 
	C68.554688,243.890106 74.502304,252.903625 82.167633,261.665527 
	C89.015327,271.110291 98.178543,277.893799 108.229385,284.671173 
	C110.753059,286.101624 113.122185,288.253510 115.828110,288.833130 
	C125.667557,290.940796 127.547195,297.312073 124.962570,305.993927 
	C106.414299,306.328949 87.773048,305.639496 69.346161,307.311890 
	C53.630917,308.738220 39.826778,316.090881 28.273474,328.227875 
	C25.204029,331.634125 21.387703,334.626923 19.224539,338.534821 
	C15.045693,346.084198 11.799480,354.149811 7.804234,362.708649 
	C6.869989,366.762909 5.225675,370.800964 5.132557,374.874451 
	C4.834585,387.909424 5.111471,400.957520 5.027052,414.928711 
	C5.073579,430.953033 5.120105,446.977356 5.026732,463.929382 
	C5.017854,469.927582 5.001488,475.925812 5.002094,481.924011 
	C5.002771,488.613739 7.428390,490.999359 14.225405,490.999451 
	C117.529655,491.000702 220.833939,490.972961 324.138031,491.104980 
	C328.081451,491.110016 332.135956,492.311615 335.935852,493.568878 
	C340.395355,495.044373 344.554291,497.408081 348.980225,499.008759 
	C366.424072,505.317444 384.331879,508.638367 402.896423,505.932495 
	C411.736267,504.644043 420.789032,503.562439 429.184998,500.727600 
	C450.706848,493.460876 468.745972,480.757599 483.726318,462.719055 
	C485.931519,459.527618 488.330780,456.451385 490.306366,453.123627 
	C496.842285,442.114166 503.090332,430.957123 505.783081,417.623199 
	C509.429993,404.279968 509.361115,390.657684 508.946289,376.180481 
	C508.631042,374.600128 508.414978,372.992188 507.983948,371.444061 
	C505.703674,363.253876 503.369263,355.078735 501.006805,346.125275 
z"/>
<path fill="#00AFE9" opacity="1.000000" stroke="none" 
	d="
M483.121216,463.036316 
	C468.745972,480.757599 450.706848,493.460876 429.184998,500.727600 
	C420.789032,503.562439 411.736267,504.644043 402.896423,505.932495 
	C384.331879,508.638367 366.424072,505.317444 348.980225,499.008759 
	C344.554291,497.408081 340.395355,495.044373 335.935852,493.568878 
	C332.135956,492.311615 328.081451,491.110016 324.138031,491.104980 
	C220.833939,490.972961 117.529655,491.000702 14.225405,490.999451 
	C7.428390,490.999359 5.002771,488.613739 5.002094,481.924011 
	C5.001488,475.925812 5.017854,469.927582 5.551861,463.464935 
	C10.995784,463.000610 15.914579,463.000763 20.903137,463.459900 
	C20.972902,467.519226 20.972902,471.119568 20.972902,474.693115 
	C67.311562,474.693115 112.997368,474.693115 159.166626,474.693115 
	C159.166626,467.928162 159.166626,461.465088 159.621979,455.001343 
	C164.996017,455.001129 169.914688,455.001617 174.903091,455.465790 
	C174.972809,462.190308 174.972809,468.451141 174.972809,474.649170 
	C220.251801,474.649170 264.874451,474.649170 309.211365,474.649170 
	C304.392426,468.727539 299.635162,462.881744 295.353821,457.024994 
	C302.591003,456.661469 309.352264,456.308960 316.416931,456.089417 
	C328.550201,469.512177 343.045471,478.802887 359.863953,484.353821 
	C371.678131,488.253021 383.815399,490.490723 396.353210,488.987732 
	C402.996429,488.191345 409.746155,487.762878 416.226929,486.232788 
	C433.250671,482.213379 447.908081,473.570129 461.357666,461.972809 
	C468.929230,462.335358 476.025238,462.685822 483.121216,463.036316 
z"/>
<path fill="#00E6D4" opacity="1.000000" stroke="none" 
	d="
M302.833282,72.000992 
	C303.222198,76.221832 303.841370,80.436951 303.946564,84.664848 
	C304.108551,91.174774 301.249603,93.961433 294.854675,93.994598 
	C289.760498,94.021019 284.666016,93.999931 278.973328,93.999931 
	C278.973328,98.254547 278.973328,102.166008 278.448212,106.538612 
	C273.004272,106.999817 268.085480,106.999886 263.096680,106.538879 
	C263.026703,102.148895 263.026703,98.219994 263.026703,94.003349 
	C227.316101,94.003349 192.258621,93.987442 157.201431,94.080467 
	C156.154007,94.083252 154.936722,95.050835 154.094818,95.872192 
	C151.034576,98.857788 148.100464,101.972664 144.696060,104.980499 
	C139.522736,104.614815 134.766388,104.375031 130.023712,103.973778 
	C127.325104,103.745453 124.648811,103.253197 122.101669,102.571053 
	C126.661583,98.598663 131.082291,94.935013 135.816330,91.011688 
	C126.846375,86.568642 119.825615,81.549271 116.238327,72.796494 
	C118.988777,72.320236 121.461304,72.207893 123.924339,71.988808 
	C127.632607,71.658958 131.334229,71.254440 135.360138,71.031540 
	C142.895538,76.819267 151.316299,78.026291 160.137955,78.017502 
	C200.202927,77.977570 240.267944,78.000008 280.332947,78.000008 
	C282.130402,78.000008 283.927887,78.000008 285.955841,78.000008 
	C285.955841,76.067009 285.955841,74.589615 286.237610,72.796524 
	C291.957336,72.320892 297.395325,72.160942 302.833282,72.000992 
z"/>
<path fill="#00EED1" opacity="1.000000" stroke="none" 
	d="
M79.948242,40.895790 
	C87.558487,34.503826 96.327118,30.542074 105.998886,28.471516 
	C106.156334,28.437807 106.316978,28.245092 106.444946,28.272457 
	C115.039154,30.110233 118.775101,23.304693 123.891632,18.701014 
	C131.130615,12.187608 139.591553,8.061490 149.538055,8.029776 
	C176.683701,7.943224 203.853195,7.299915 230.968872,8.205564 
	C255.891479,9.037965 275.523621,20.839046 289.498413,41.657791 
	C282.739319,42.336594 276.310242,42.687599 269.576202,42.903538 
	C255.737457,29.152092 238.775131,24.284046 220.220337,24.058285 
	C199.397034,23.804920 178.567490,23.907631 157.742538,24.080173 
	C153.711288,24.113575 149.616653,24.883480 145.676636,25.833586 
	C136.873520,27.956385 131.349731,33.923527 127.375191,41.998863 
	C112.965919,41.999626 99.014618,42.037605 85.064102,41.951271 
	C83.356705,41.940701 81.653427,41.263863 79.948242,40.895790 
z"/>
<path fill="#00C6E0" opacity="1.000000" stroke="none" 
	d="
M213.115143,305.958191 
	C227.281128,305.972229 241.451248,306.204346 255.611908,305.936890 
	C268.840088,305.687103 281.241669,308.276794 292.739441,314.929016 
	C294.137634,315.737976 295.671021,316.313263 295.162537,314.879120 
	C300.871002,310.324646 306.579437,305.770203 312.982513,301.252014 
	C317.431305,301.525513 321.187408,301.736481 324.939209,302.006866 
	C329.334351,302.323669 333.725769,302.692169 337.950867,303.348999 
	C332.824310,307.302704 327.600525,310.639038 322.961029,314.651062 
	C312.598328,323.612335 305.602509,335.165283 298.640411,347.028748 
	C292.498810,347.011566 286.832672,347.006866 281.103699,346.635712 
	C283.363281,341.432404 285.685669,336.595551 288.156250,331.450043 
	C284.765320,329.916534 281.649353,327.872437 278.243683,327.091400 
	C269.536743,325.094635 260.749420,323.273010 251.896332,322.160828 
	C247.315979,321.585419 242.527435,322.666962 237.377533,322.999939 
	C232.003738,322.999939 227.085388,322.999878 221.919678,322.636505 
	C213.231537,320.696960 205.880508,322.062531 200.686844,329.744965 
	C199.803238,331.052002 198.320404,331.953888 196.691650,332.982819 
	C192.183426,332.615143 188.092300,332.367188 184.014542,331.978943 
	C181.315842,331.721985 178.636292,331.263672 176.081360,330.591400 
	C182.311615,324.194641 188.516922,318.204102 194.427032,311.935242 
	C195.844177,310.432068 196.279724,308.003387 197.623413,306.000122 
	C203.091797,305.986023 208.103470,305.972107 213.115143,305.958191 
z"/>
<path fill="#00CADF" opacity="1.000000" stroke="none" 
	d="
M338.118805,303.038208 
	C333.725769,302.692169 329.334351,302.323669 324.939209,302.006866 
	C321.187408,301.736481 317.431305,301.525513 313.286469,301.118469 
	C321.812866,291.775024 332.764587,285.595337 344.239563,280.436432 
	C362.729492,272.123749 382.394653,269.295288 402.400574,271.169861 
	C424.519196,273.242401 444.920685,280.629944 462.470642,294.795654 
	C462.710236,294.988983 463.086273,295.013275 463.118744,295.474915 
	C456.678589,295.888885 450.511536,295.790100 444.360748,296.060760 
	C440.945038,296.211060 437.556458,296.978119 433.865723,297.286194 
	C423.920471,293.260956 414.309479,289.137878 403.682312,289.020538 
	C393.693726,288.910248 383.557465,288.047180 373.747498,289.404297 
	C361.030670,291.163513 349.083954,296.103668 338.118805,303.038208 
z"/>
<path fill="#00C6E0" opacity="1.000000" stroke="none" 
	d="
M28.879246,327.962921 
	C39.826778,316.090881 53.630917,308.738220 69.346161,307.311890 
	C87.773048,305.639496 106.414299,306.328949 125.897568,305.988647 
	C131.832794,305.989014 136.833038,305.994659 141.902496,306.380676 
	C142.753708,308.451050 143.182678,310.464050 144.380722,311.773407 
	C148.822968,316.628387 153.518661,321.251526 157.695923,326.020111 
	C150.143768,326.399841 143.014847,326.721161 135.573837,326.902283 
	C133.254379,325.178406 131.300201,322.311249 129.230728,322.225494 
	C118.231407,321.769592 107.203171,322.011047 96.210587,322.011047 
	C96.050484,323.703339 95.941849,324.851562 95.377762,325.999908 
	C90.003799,325.999908 85.085297,325.999817 80.096695,325.596741 
	C79.972969,324.246521 79.919327,323.299255 79.783615,320.902313 
	C70.415298,324.131439 61.725761,327.126617 52.757004,329.803101 
	C44.611603,328.977234 36.745426,328.470062 28.879246,327.962921 
z"/>
<path fill="#00C9DF" opacity="1.000000" stroke="none" 
	d="
M141.833282,306.000305 
	C136.833038,305.994659 131.832794,305.989014 126.358688,305.970795 
	C127.547195,297.312073 125.667557,290.940796 115.828110,288.833130 
	C113.122185,288.253510 110.753059,286.101624 108.451561,284.190948 
	C110.458786,283.473816 112.242256,283.047058 114.029144,283.032227 
	C122.663818,282.960724 131.300171,283.059479 139.934021,282.949188 
	C141.639053,282.927429 143.335739,282.252350 145.470413,281.929749 
	C151.392792,282.654083 156.865280,283.529053 162.372498,283.959442 
	C174.919083,284.939941 187.026505,282.443481 199.054016,279.282684 
	C200.614334,280.125305 202.078766,280.911896 203.557755,280.940308 
	C210.517502,281.074127 217.482315,280.935150 224.442734,281.050323 
	C225.984009,281.075775 227.514755,281.736938 229.050354,282.105408 
	C225.336655,284.594635 221.850204,287.573486 217.844162,289.432800 
	C213.983856,291.224426 212.369034,293.441223 212.941040,297.630463 
	C213.272522,300.058289 213.012436,302.566895 213.066864,305.498657 
	C208.103470,305.972107 203.091797,305.986023 197.553604,305.560730 
	C197.027084,302.558228 197.027084,299.994934 197.027084,297.195862 
	C178.516129,301.853424 160.450607,302.360260 141.833282,298.235138 
	C141.833282,301.070770 141.833282,303.535553 141.833282,306.000305 
z"/>
<path fill="#00E1D6" opacity="1.000000" stroke="none" 
	d="
M121.962471,102.879791 
	C124.648811,103.253197 127.325104,103.745453 130.023712,103.973778 
	C134.766388,104.375031 139.522736,104.614815 144.554825,105.287865 
	C124.693283,125.442528 100.638206,136.068665 71.833275,136.317932 
	C71.833275,139.750626 71.833275,142.875458 71.375069,146.000137 
	C63.811726,145.999985 56.704094,146.111664 49.602501,145.953094 
	C46.025749,145.873245 42.459949,145.302994 38.889198,144.954498 
	C44.299675,142.797943 49.710148,140.641388 56.026897,138.123581 
	C56.026897,129.334732 56.026897,119.131569 56.551933,108.464249 
	C61.995735,108.000015 66.914505,107.999931 71.902969,108.458176 
	C71.972672,112.519638 71.972672,116.122772 71.972672,120.156708 
	C76.756729,119.538719 80.939903,119.089493 85.092796,118.445152 
	C98.674690,116.337837 110.707321,110.519943 121.962471,102.879791 
z"/>
<path fill="#00DAD9" opacity="1.000000" stroke="none" 
	d="
M38.585579,145.088104 
	C42.459949,145.302994 46.025749,145.873245 49.602501,145.953094 
	C56.704094,146.111664 63.811726,145.999985 71.444885,146.464233 
	C71.981895,153.401840 71.889526,159.877335 72.025360,166.348038 
	C72.197899,174.567505 72.555519,182.783081 72.414749,191.001953 
	C63.332775,191.335724 54.667042,191.619690 46.008011,192.041290 
	C44.309460,192.123993 42.636826,192.739014 40.952236,193.108521 
	C31.811192,188.905197 28.137957,180.988937 27.072205,171.705521 
	C25.833099,160.912079 29.841356,152.059402 38.585579,145.088104 
M56.000137,164.585236 
	C56.000137,162.126907 56.000137,159.668579 56.000137,157.239090 
	C49.401077,156.936050 44.509827,161.254684 44.003021,167.364197 
	C43.407017,174.549026 47.609436,179.250275 56.000153,180.544434 
	C56.000153,175.524521 56.000153,170.541306 56.000137,164.585236 
z"/>
<path fill="#00EAD3" opacity="1.000000" stroke="none" 
	d="
M79.641739,41.034637 
	C81.653427,41.263863 83.356705,41.940701 85.064102,41.951271 
	C99.014618,42.037605 112.965919,41.999626 127.431702,42.401405 
	C124.486168,53.633965 127.811890,62.750496 135.038666,70.881668 
	C131.334229,71.254440 127.632607,71.658958 123.924339,71.988808 
	C121.461304,72.207893 118.988777,72.320236 115.912186,72.638748 
	C110.137589,64.334244 108.612846,55.112514 109.618378,45.362793 
	C96.825760,48.338268 92.193214,52.055347 83.552002,62.115227 
	C80.536102,65.626266 78.567558,70.036964 75.645477,74.025436 
	C69.739662,73.997345 64.309067,73.980606 58.878471,73.963867 
	C62.306393,60.918221 69.326927,50.113869 79.641739,41.034637 
z"/>
<path fill="#00DBD9" opacity="1.000000" stroke="none" 
	d="
M294.388123,144.129440 
	C304.309448,149.274780 310.561554,163.587189 307.693268,174.712540 
	C307.174438,176.724899 306.414642,178.675140 304.964813,180.835266 
	C297.404694,180.662979 290.645905,180.309525 284.036743,179.638367 
	C290.598419,174.876175 292.100800,171.438309 290.182709,165.599594 
	C288.286591,159.827835 284.906677,157.216583 278.833496,157.280228 
	C278.833496,164.845520 278.833496,172.423889 278.430969,180.064117 
	C273.074463,180.417404 268.120453,180.708832 263.096313,180.536179 
	C263.072998,168.714798 263.119781,157.357513 263.624817,146.000092 
	C272.474640,145.999863 280.868561,146.102524 289.255981,145.914932 
	C290.979156,145.876404 292.678040,144.752853 294.388123,144.129440 
z"/>
<path fill="#00CDDE" opacity="1.000000" stroke="none" 
	d="
M229.405273,282.053772 
	C227.514755,281.736938 225.984009,281.075775 224.442734,281.050323 
	C217.482315,280.935150 210.517502,281.074127 203.557755,280.940308 
	C202.078766,280.911896 200.614334,280.125305 199.240051,278.966431 
	C207.992249,273.562531 217.191940,269.642609 225.139267,263.968536 
	C232.115723,258.987610 237.688324,252.040405 244.356216,245.973480 
	C250.925385,246.337936 257.019348,246.690598 263.113281,247.043259 
	C257.395477,254.215469 252.073334,261.757263 245.831177,268.439667 
	C241.079788,273.526184 235.160110,277.521393 229.405273,282.053772 
z"/>
<path fill="#00B5E7" opacity="1.000000" stroke="none" 
	d="
M483.423767,462.877686 
	C476.025238,462.685822 468.929230,462.335358 461.497223,461.664734 
	C464.795532,457.115509 468.519928,452.959961 472.045563,448.642059 
	C479.550812,439.450378 484.100006,428.690857 488.680786,417.771912 
	C494.504242,417.912415 499.813568,417.973938 505.122864,418.035461 
	C503.090332,430.957123 496.842285,442.114166 490.306366,453.123627 
	C488.330780,456.451385 485.931519,459.527618 483.423767,462.877686 
z"/>
<path fill="#00BCE4" opacity="1.000000" stroke="none" 
	d="
M5.166458,414.000549 
	C5.111471,400.957520 4.834585,387.909424 5.132557,374.874451 
	C5.225675,370.800964 6.869989,366.762909 8.442036,362.354492 
	C14.664331,362.000397 20.248825,362.000458 25.775700,362.371826 
	C24.145452,371.678925 22.046721,380.562775 21.156647,389.566101 
	C20.358185,397.642792 20.889095,405.850952 20.377552,414.000641 
	C15.003189,414.000305 10.084824,414.000427 5.166458,414.000549 
z"/>
<path fill="#00D7DA" opacity="1.000000" stroke="none" 
	d="
M283.887085,179.956055 
	C290.645905,180.309525 297.404694,180.662979 304.639465,181.029083 
	C300.492432,192.597382 290.828674,196.696808 279.485840,198.354675 
	C278.658844,202.294510 277.829956,206.243195 276.461121,210.595947 
	C270.669617,211.000717 265.418121,211.001434 260.097900,210.587952 
	C261.074951,200.449249 262.120697,190.724762 263.166473,181.000275 
	C268.120453,180.708832 273.074463,180.417404 278.614075,180.348511 
	C280.762177,180.366043 282.324646,180.161041 283.887085,179.956055 
z"/>
<path fill="#00B5E7" opacity="1.000000" stroke="none" 
	d="
M5.096755,414.464630 
	C10.084824,414.000427 15.003189,414.000305 20.447258,414.464691 
	C20.926432,430.953094 20.879904,446.977020 20.833374,463.000916 
	C15.914579,463.000763 10.995784,463.000610 5.621810,463.001099 
	C5.120105,446.977356 5.073579,430.953033 5.096755,414.464630 
z"/>
<path fill="#00D4DB" opacity="1.000000" stroke="none" 
	d="
M41.107464,193.433960 
	C42.636826,192.739014 44.309460,192.123993 46.008011,192.041290 
	C54.667042,191.619690 63.332775,191.335724 72.484322,191.457626 
	C73.186691,195.349869 72.855461,198.932037 73.717781,202.199173 
	C76.266060,211.854202 79.286148,221.384705 81.646210,230.975006 
	C77.366798,230.990829 73.548973,230.806351 69.765038,231.083939 
	C68.001221,231.213348 66.303101,232.238281 64.575203,232.857285 
	C61.206940,221.582809 57.838684,210.308334 54.300003,198.463394 
	C50.847958,197.217865 46.055325,195.488632 41.107464,193.433960 
z"/>
<path fill="#00C3E1" opacity="1.000000" stroke="none" 
	d="
M25.833317,362.000549 
	C20.248825,362.000458 14.664331,362.000397 8.623245,362.000885 
	C11.799480,354.149811 15.045693,346.084198 19.224539,338.534821 
	C21.387703,334.626923 25.204029,331.634125 28.576359,328.095398 
	C36.745426,328.470062 44.611603,328.977234 52.595852,330.105377 
	C40.144417,338.048828 31.208763,348.494659 25.833317,362.000549 
z"/>
<path fill="#00BCE4" opacity="1.000000" stroke="none" 
	d="
M505.452972,417.829346 
	C499.813568,417.973938 494.504242,417.912415 488.659302,417.335205 
	C488.413330,415.892975 488.731171,414.974213 488.988464,414.038757 
	C492.239319,402.219208 492.092987,390.098907 492.569275,377.936127 
	C498.259460,377.582916 503.546570,377.291931 508.833710,377.000977 
	C509.361115,390.657684 509.429993,404.279968 505.452972,417.829346 
z"/>
<path fill="#00E1D6" opacity="1.000000" stroke="none" 
	d="
M294.196350,143.854889 
	C292.678040,144.752853 290.979156,145.876404 289.255981,145.914932 
	C280.868561,146.102524 272.474640,145.999863 263.554688,145.535995 
	C263.073090,132.381348 263.119873,119.690651 263.166626,106.999947 
	C268.085480,106.999886 273.004272,106.999817 278.378235,106.999527 
	C278.833344,117.779671 278.833344,128.560028 278.833344,138.631653 
	C284.311737,140.418640 289.158173,141.999496 294.196350,143.854889 
z"/>
<path fill="#00CDDE" opacity="1.000000" stroke="none" 
	d="
M145.036285,281.878540 
	C143.335739,282.252350 141.639053,282.927429 139.934021,282.949188 
	C131.300171,283.059479 122.663818,282.960724 114.029144,283.032227 
	C112.242256,283.047058 110.458786,283.473816 108.282074,283.878754 
	C98.178543,277.893799 89.015327,271.110291 82.500175,261.340149 
	C89.928070,260.663574 97.023415,260.312378 104.425461,260.097656 
	C107.158096,262.157074 109.551674,264.122559 112.015633,265.995453 
	C121.937752,273.537415 133.421661,277.847015 145.036285,281.878540 
z"/>
<path fill="#00D2DC" opacity="1.000000" stroke="none" 
	d="
M260.166565,211.002151 
	C265.418121,211.001434 270.669617,211.000717 276.377258,210.999908 
	C275.513733,222.261398 271.159424,232.482025 266.037628,242.437134 
	C265.296967,243.876724 264.498657,245.286636 263.420166,246.876770 
	C257.019348,246.690598 250.925385,246.337936 244.413605,245.617203 
	C247.530396,239.121109 251.420654,233.164658 254.486176,226.810333 
	C256.905853,221.794785 258.310913,216.289780 260.166565,211.002151 
z"/>
<path fill="#00CFDD" opacity="1.000000" stroke="none" 
	d="
M104.118767,259.961182 
	C97.023415,260.312378 89.928070,260.663574 82.356178,261.026123 
	C74.502304,252.903625 68.554688,243.890106 64.742950,233.158218 
	C66.303101,232.238281 68.001221,231.213348 69.765038,231.083939 
	C73.548973,230.806351 77.366798,230.990829 81.952744,231.143143 
	C87.696846,242.469818 95.621407,251.429169 104.118767,259.961182 
z"/>
<path fill="#00C9DF" opacity="1.000000" stroke="none" 
	d="
M434.155670,297.467224 
	C437.556458,296.978119 440.945038,296.211060 444.360748,296.060760 
	C450.511536,295.790100 456.678589,295.888885 463.368164,295.751617 
	C470.929443,302.844543 477.961487,310.019226 484.738098,317.859680 
	C482.524170,318.683655 480.565552,318.840912 478.607056,319.000183 
	C474.364319,319.345215 470.121613,319.691284 465.574158,319.903076 
	C455.828766,311.036926 446.106964,302.696869 434.155670,297.467224 
z"/>
<path fill="#00C3E1" opacity="1.000000" stroke="none" 
	d="
M465.878906,320.036926 
	C470.121613,319.691284 474.364319,319.345215 478.607056,319.000183 
	C480.565552,318.840912 482.524170,318.683655 484.768066,318.211456 
	C492.366119,326.179260 497.750977,335.550629 500.744843,346.825623 
	C494.948486,347.696289 489.414124,347.866608 483.571320,347.868256 
	C479.310699,341.082428 475.418274,334.428467 471.377533,327.865845 
	C469.708557,325.155273 467.721344,322.640656 465.878906,320.036926 
z"/>
<path fill="#00EAD3" opacity="1.000000" stroke="none" 
	d="
M269.881195,43.038605 
	C276.310242,42.687599 282.739319,42.336594 289.644836,41.974556 
	C296.607208,50.738506 300.189270,60.761353 302.768555,71.621971 
	C297.395325,72.160942 291.957336,72.320892 285.905090,72.593964 
	C283.070618,61.302856 277.239868,51.773941 269.881195,43.038605 
z"/>
<path fill="#00E6D4" opacity="1.000000" stroke="none" 
	d="
M58.552719,74.166771 
	C64.309067,73.980606 69.739662,73.997345 75.593689,74.416191 
	C75.342148,76.955559 74.277023,79.054100 74.060501,81.236832 
	C73.176933,90.143837 72.552910,99.076591 71.833275,107.999855 
	C66.914505,107.999931 61.995735,108.000015 56.621849,108.000313 
	C56.370575,96.760666 54.451191,85.390724 58.552719,74.166771 
z"/>
<path fill="#00C0E3" opacity="1.000000" stroke="none" 
	d="
M483.879730,348.036926 
	C489.414124,347.866608 494.948486,347.696289 500.768250,347.212158 
	C503.369263,355.078735 505.703674,363.253876 507.983948,371.444061 
	C508.414978,372.992188 508.631042,374.600128 508.890015,376.590729 
	C503.546570,377.291931 498.259460,377.582916 492.379517,377.573364 
	C489.151062,367.527527 486.515381,357.782227 483.879730,348.036926 
z"/>
<path fill="#FFFFFF" opacity="1.000000" stroke="none" 
	d="
M483.571320,347.868256 
	C486.515381,357.782227 489.151062,367.527527 491.976501,377.635590 
	C492.092987,390.098907 492.239319,402.219208 488.988464,414.038757 
	C488.731171,414.974213 488.413330,415.892975 488.145142,417.256226 
	C484.100006,428.690857 479.550812,439.450378 472.045563,448.642059 
	C468.519928,452.959961 464.795532,457.115509 461.021606,461.652649 
	C447.908081,473.570129 433.250671,482.213379 416.226929,486.232788 
	C409.746155,487.762878 402.996429,488.191345 396.353210,488.987732 
	C383.815399,490.490723 371.678131,488.253021 359.863953,484.353821 
	C343.045471,478.802887 328.550201,469.512177 316.274994,455.778015 
	C307.643799,446.143982 301.269745,435.787842 297.083984,424.260132 
	C294.574188,417.348053 293.070679,410.070648 291.067078,402.496796 
	C290.878540,390.141693 289.577209,378.170746 293.037872,366.494537 
	C294.968201,359.981720 297.083771,353.523865 299.115845,347.041229 
	C305.602509,335.165283 312.598328,323.612335 322.961029,314.651062 
	C327.600525,310.639038 332.824310,307.302704 337.950867,303.348999 
	C349.083954,296.103668 361.030670,291.163513 373.747498,289.404297 
	C383.557465,288.047180 393.693726,288.910248 403.682312,289.020538 
	C414.309479,289.137878 423.920471,293.260956 433.865723,297.286194 
	C446.106964,302.696869 455.828766,311.036926 465.574158,319.903076 
	C467.721344,322.640656 469.708557,325.155273 471.377533,327.865845 
	C475.418274,334.428467 479.310699,341.082428 483.571320,347.868256 
M437.713623,399.785553 
	C448.743317,390.405487 455.561279,379.128174 453.971649,363.211670 
	C451.815948,353.421448 447.787170,345.005585 439.364960,338.676270 
	C426.522644,329.025208 407.299194,328.651947 394.794250,338.783386 
	C392.156006,340.920868 390.159760,341.423035 387.900024,338.473267 
	C387.246948,337.620819 386.076385,337.132996 385.089050,336.573242 
	C371.889282,329.089722 358.664398,328.798767 345.625153,336.827881 
	C335.557556,343.027191 329.714203,351.952606 329.003387,364.793365 
	C328.675323,366.025665 327.966522,367.293488 328.077606,368.484802 
	C329.275696,381.329895 334.755157,391.942749 345.170654,400.662689 
	C360.354706,415.951019 375.538757,431.239319 390.085266,445.885712 
	C406.173462,430.202759 421.639099,415.126709 437.713623,399.785553 
z"/>
<path fill="#FFFFFF" opacity="1.000000" stroke="none" 
	d="
M25.775700,362.371826 
	C31.208763,348.494659 40.144417,338.048828 52.875076,330.424072 
	C61.725761,327.126617 70.415298,324.131439 79.783615,320.902313 
	C79.919327,323.299255 79.972969,324.246521 80.026634,326.060059 
	C80.017761,330.224579 79.644737,333.572784 80.088882,336.808838 
	C80.691902,341.202393 79.112633,343.753998 74.573166,344.939697 
	C60.416241,348.742737 46.622829,366.699860 49.097042,384.464600 
	C49.017918,398.916840 48.993931,412.905029 49.006577,426.893188 
	C49.011395,432.221832 51.812145,434.970703 57.188114,434.996826 
	C61.517708,435.017883 65.854637,435.157928 70.175438,434.961670 
	C75.980331,434.698029 77.627464,431.719879 77.799034,427.197296 
	C77.974228,422.579102 75.692726,419.199127 70.086235,418.996765 
	C68.487511,418.939056 66.890198,418.842316 64.833229,418.740845 
	C64.833229,406.924530 64.833229,395.462555 64.916611,383.600342 
	C65.333130,381.961700 65.838020,380.741547 65.971924,379.481934 
	C66.950478,370.276581 72.027229,363.789703 80.522903,361.176514 
	C92.070824,357.624512 102.751892,359.895233 110.110214,374.408447 
	C110.368881,376.054321 110.899643,377.280518 110.964081,378.530762 
	C111.418648,387.351562 111.777382,396.177338 112.096870,405.462891 
	C112.027031,410.179810 112.027031,414.435303 112.027031,419.000275 
	C108.954124,419.000275 106.494431,418.983154 104.035057,419.003876 
	C98.772629,419.048187 95.960487,421.929321 95.999969,427.209412 
	C96.036461,432.090332 98.946716,434.966736 103.955055,434.993408 
	C109.593719,435.023407 115.233421,435.056152 120.871239,434.980927 
	C124.803009,434.928497 127.961243,431.806152 127.975494,427.877686 
	C128.003143,420.252563 127.888809,412.626953 127.904060,404.537445 
	C127.983162,397.243073 128.082901,390.411102 127.959656,383.583191 
	C127.901703,380.372833 127.414772,377.170197 127.071320,373.563843 
	C124.115211,358.955963 115.247719,350.014832 101.850891,344.567719 
	C99.818810,343.688721 97.987961,343.138733 95.833214,342.491425 
	C95.833214,336.923218 95.833214,331.461517 95.833214,325.999817 
	C95.941849,324.851562 96.050484,323.703339 96.210587,322.011047 
	C107.203171,322.011047 118.231407,321.769592 129.230728,322.225494 
	C131.300201,322.311249 133.254379,325.178406 135.713593,327.209351 
	C142.574097,334.066437 149.107529,340.359070 155.312576,346.960327 
	C157.086243,348.847260 157.908218,351.628815 159.096649,354.464172 
	C159.073395,369.286102 159.120056,383.643921 159.096985,398.465668 
	C159.073715,417.620392 159.120163,436.311188 159.166626,455.002014 
	C159.166626,461.465088 159.166626,467.928162 159.166626,474.693115 
	C112.997368,474.693115 67.311562,474.693115 20.972902,474.693115 
	C20.972902,471.119568 20.972902,467.519226 20.903139,463.459900 
	C20.879904,446.977020 20.926432,430.953094 20.903254,414.465149 
	C20.889095,405.850952 20.358185,397.642792 21.156647,389.566101 
	C22.046721,380.562775 24.145452,371.678925 25.775700,362.371826 
z"/>
<path fill="#FFFFFF" opacity="1.000000" stroke="none" 
	d="
M237.832962,322.999878 
	C242.527435,322.666962 247.315979,321.585419 251.896332,322.160828 
	C260.749420,323.273010 269.536743,325.094635 278.243683,327.091400 
	C281.649353,327.872437 284.765320,329.916534 288.156250,331.450043 
	C285.685669,336.595551 283.363281,341.432404 280.929504,346.980042 
	C274.115479,365.931091 271.958191,384.708344 274.242676,404.393005 
	C277.411713,423.681366 283.696564,441.321991 294.877930,457.035980 
	C299.635162,462.881744 304.392426,468.727539 309.211365,474.649170 
	C264.874451,474.649170 220.251801,474.649170 174.972809,474.649170 
	C174.972809,468.451141 174.972809,462.190308 174.974213,455.001709 
	C174.928162,435.383209 174.880722,416.692505 174.904175,397.537720 
	C175.021942,383.062897 175.068817,369.052185 175.419159,354.909119 
	C182.853226,347.532135 189.983810,340.287537 197.114410,333.042938 
	C198.320404,331.953888 199.803238,331.052002 200.686844,329.744965 
	C205.880508,322.062531 213.231537,320.696960 221.849579,323.100586 
	C222.073395,334.285339 222.119934,344.642670 222.097168,355.435669 
	C222.779343,360.762756 221.439972,363.641724 216.190216,365.728058 
	C211.904709,367.431213 208.655701,371.742462 204.629517,375.044861 
	C198.352509,381.741577 197.392593,389.637817 198.097229,398.417816 
	C198.849548,419.516663 221.895615,432.499634 240.071121,426.536743 
	C253.924759,421.991669 263.002472,410.104492 262.903503,397.551300 
	C263.528320,388.805054 261.476318,381.321655 255.914154,374.586609 
	C251.042938,370.862244 246.619736,366.789276 241.437149,364.292542 
	C238.756439,363.001068 237.874771,362.076355 237.978622,359.485291 
	C238.038391,357.994568 237.888855,356.495422 237.904053,354.536194 
	C237.927399,343.714813 237.880173,333.357361 237.832962,322.999878 
z"/>
<path fill="#00B7E6" opacity="1.000000" stroke="none" 
	d="
M295.353821,457.024994 
	C283.696564,441.321991 277.411713,423.681366 274.660034,404.390808 
	C280.372284,403.650391 285.743561,403.303894 291.114868,402.957397 
	C293.070679,410.070648 294.574188,417.348053 297.083984,424.260132 
	C301.269745,435.787842 307.643799,446.143982 315.971558,455.645081 
	C309.352264,456.308960 302.591003,456.661469 295.353821,457.024994 
z"/>
<path fill="#00B7E6" opacity="1.000000" stroke="none" 
	d="
M174.833282,398.001801 
	C174.880722,416.692505 174.928162,435.383209 174.904480,454.537994 
	C169.914688,455.001617 164.996017,455.001129 159.621979,455.001343 
	C159.120163,436.311188 159.073715,417.620392 159.552322,398.465027 
	C164.996017,398.000946 169.914642,398.001373 174.833282,398.001801 
z"/>
<path fill="#FFFFFF" opacity="1.000000" stroke="none" 
	d="
M104.425461,260.097656 
	C95.621407,251.429169 87.696846,242.469818 82.428207,231.132050 
	C79.286148,221.384705 76.266060,211.854202 73.717781,202.199173 
	C72.855461,198.932037 73.186691,195.349869 72.902908,191.455994 
	C72.555519,182.783081 72.197899,174.567505 72.025360,166.348038 
	C71.889526,159.877335 71.981895,153.401840 71.903091,146.464386 
	C71.833275,142.875458 71.833275,139.750626 71.833275,136.317932 
	C100.638206,136.068665 124.693283,125.442528 144.977539,105.346146 
	C148.100464,101.972664 151.034576,98.857788 154.094818,95.872192 
	C154.936722,95.050835 156.154007,94.083252 157.201431,94.080467 
	C192.258621,93.987442 227.316101,94.003349 263.026703,94.003349 
	C263.026703,98.219994 263.026703,102.148895 263.096680,106.538879 
	C263.119873,119.690651 263.073090,132.381348 263.096436,145.536133 
	C263.119781,157.357513 263.072998,168.714798 263.096313,180.536179 
	C262.120697,190.724762 261.074951,200.449249 260.097900,210.587952 
	C258.310913,216.289780 256.905853,221.794785 254.486176,226.810333 
	C251.420654,233.164658 247.530396,239.121109 243.938385,245.605408 
	C237.688324,252.040405 232.115723,258.987610 225.139267,263.968536 
	C217.191940,269.642609 207.992249,273.562531 199.150864,278.561096 
	C187.026505,282.443481 174.919083,284.939941 162.372498,283.959442 
	C156.865280,283.529053 151.392792,282.654083 145.470413,281.929779 
	C133.421661,277.847015 121.937752,273.537415 112.015633,265.995453 
	C109.551674,264.122559 107.158096,262.157074 104.425461,260.097656 
M214.296844,165.922958 
	C207.950439,167.102478 204.911011,165.389053 203.030518,159.206589 
	C202.376465,157.056274 202.723999,154.562134 201.898987,152.512894 
	C200.860352,149.932999 199.541458,146.237976 197.519821,145.588684 
	C194.919220,144.753433 190.521362,145.445511 188.623489,147.272491 
	C183.441513,152.260864 185.330994,159.256012 186.746582,164.968842 
	C190.633423,180.654999 207.675507,187.655975 221.984375,181.317642 
	C233.440811,176.242859 238.042007,166.572052 237.077713,154.026474 
	C236.614975,148.006042 234.462585,145.043182 229.221924,145.000595 
	C223.778793,144.956360 221.407227,147.686813 220.928436,153.584305 
	C220.550034,158.245056 220.360107,163.272751 214.296844,165.922958 
M125.064636,183.436707 
	C130.469849,182.792786 135.438568,181.479065 139.871780,177.787933 
	C148.172379,170.876816 149.757538,161.938263 149.017639,151.978485 
	C148.712814,147.875473 145.618851,145.028427 141.167984,145.000580 
	C136.369873,144.970566 133.280304,147.767242 132.964691,152.142685 
	C132.765625,154.902573 132.442688,157.693985 131.771988,160.370178 
	C130.691895,164.679871 126.755348,166.531616 123.242012,166.561111 
	C120.821777,166.581421 117.507851,163.977280 116.164978,161.642227 
	C114.565163,158.860367 114.441177,155.135727 114.051811,151.776184 
	C113.589188,147.784500 110.482826,144.995132 105.969498,145.000565 
	C101.450066,145.005997 98.149765,147.774078 98.023758,151.843094 
	C97.915504,155.338776 97.748169,158.863113 98.058311,162.334457 
	C98.589745,168.282639 101.746780,172.960846 105.971008,176.996414 
	C111.116478,181.912094 117.676888,183.049957 125.064636,183.436707 
z"/>
<path fill="#FFFFFF" opacity="1.000000" stroke="none" 
	d="
M269.576202,42.903538 
	C277.239868,51.773941 283.070618,61.302856 285.623352,72.909645 
	C285.955841,74.589615 285.955841,76.067009 285.955841,78.000008 
	C283.927887,78.000008 282.130402,78.000008 280.332947,78.000008 
	C240.267944,78.000008 200.202927,77.977570 160.137955,78.017502 
	C151.316299,78.026291 142.895538,76.819267 135.360138,71.031540 
	C127.811890,62.750496 124.486168,53.633965 127.889915,42.400833 
	C131.349731,33.923527 136.873520,27.956385 145.676636,25.833586 
	C149.616653,24.883480 153.711288,24.113575 157.742538,24.080173 
	C178.567490,23.907631 199.397034,23.804920 220.220337,24.058285 
	C238.775131,24.284046 255.737457,29.152092 269.576202,42.903538 
z"/>
<path fill="#FFFFFF" opacity="1.000000" stroke="none" 
	d="
M71.902969,108.458176 
	C72.552910,99.076591 73.176933,90.143837 74.060501,81.236832 
	C74.277023,79.054100 75.342148,76.955559 76.068916,74.427551 
	C78.567558,70.036964 80.536102,65.626266 83.552002,62.115227 
	C92.193214,52.055347 96.825760,48.338268 109.618378,45.362793 
	C108.612846,55.112514 110.137589,64.334244 115.630020,72.954880 
	C119.825615,81.549271 126.846375,86.568642 135.816330,91.011688 
	C131.082291,94.935013 126.661583,98.598663 122.101669,102.571053 
	C110.707321,110.519943 98.674690,116.337837 85.092796,118.445152 
	C80.939903,119.089493 76.756729,119.538719 71.972672,120.156708 
	C71.972672,116.122772 71.972672,112.519638 71.902969,108.458176 
z"/>
<path fill="#FFFFFF" opacity="1.000000" stroke="none" 
	d="
M141.902496,306.380676 
	C141.833282,303.535553 141.833282,301.070770 141.833282,298.235138 
	C160.450607,302.360260 178.516129,301.853424 197.027084,297.195862 
	C197.027084,299.994934 197.027084,302.558228 197.096893,305.560944 
	C196.279724,308.003387 195.844177,310.432068 194.427032,311.935242 
	C188.516922,318.204102 182.311615,324.194641 175.775757,330.729004 
	C173.487503,333.180450 171.638031,335.190094 169.842224,337.141449 
	C165.541199,333.039764 161.830170,329.500763 158.119141,325.961731 
	C153.518661,321.251526 148.822968,316.628387 144.380722,311.773407 
	C143.182678,310.464050 142.753708,308.451050 141.902496,306.380676 
z"/>
<path fill="#00BEE3" opacity="1.000000" stroke="none" 
	d="
M291.067078,402.496765 
	C285.743561,403.303894 280.372284,403.650391 274.583618,403.999084 
	C271.958191,384.708344 274.115479,365.931091 280.992340,347.346497 
	C286.832672,347.006866 292.498810,347.011566 298.640411,347.028748 
	C297.083771,353.523865 294.968201,359.981720 293.037872,366.494537 
	C289.577209,378.170746 290.878540,390.141693 291.067078,402.496765 
z"/>
<path fill="#00C3E1" opacity="1.000000" stroke="none" 
	d="
M157.695923,326.020111 
	C161.830170,329.500763 165.541199,333.039764 169.842224,337.141449 
	C171.638031,335.190094 173.487503,333.180450 175.642578,331.033142 
	C178.636292,331.263672 181.315842,331.721985 184.014542,331.978943 
	C188.092300,332.367188 192.183426,332.615143 196.691635,332.982819 
	C189.983810,340.287537 182.853226,347.532135 174.989746,354.888306 
	C169.226761,354.666626 164.196671,354.333374 159.166595,354.000122 
	C157.908218,351.628815 157.086243,348.847260 155.312576,346.960327 
	C149.107529,340.359070 142.574097,334.066437 136.025665,327.349548 
	C143.014847,326.721161 150.143768,326.399841 157.695923,326.020111 
z"/>
<path fill="#00C3E1" opacity="1.000000" stroke="none" 
	d="
M237.377533,322.999939 
	C237.880173,333.357361 237.927399,343.714813 237.448730,354.536133 
	C232.004059,355.000000 227.085266,355.000031 222.166473,355.000031 
	C222.119934,344.642670 222.073395,334.285339 222.096954,323.463867 
	C227.085388,322.999878 232.003738,322.999939 237.377533,322.999939 
z"/>
<path fill="#00C3E1" opacity="1.000000" stroke="none" 
	d="
M95.377762,325.999908 
	C95.833214,331.461517 95.833214,336.923218 95.833214,342.491425 
	C97.987961,343.138733 99.818810,343.688721 101.565651,344.882202 
	C95.014130,345.683838 88.546402,345.954132 82.079224,345.941345 
	C79.702171,345.936646 77.326431,345.262848 74.950096,344.894287 
	C79.112633,343.753998 80.691902,341.202393 80.088882,336.808838 
	C79.644737,333.572784 80.017761,330.224579 80.096725,326.463013 
	C85.085297,325.999817 90.003799,325.999908 95.377762,325.999908 
z"/>
<path fill="#FFFFFF" opacity="1.000000" stroke="none" 
	d="
M56.000145,165.071655 
	C56.000153,170.541306 56.000153,175.524521 56.000153,180.544434 
	C47.609436,179.250275 43.407017,174.549026 44.003021,167.364197 
	C44.509827,161.254684 49.401077,156.936050 56.000137,157.239090 
	C56.000137,159.668579 56.000137,162.126907 56.000145,165.071655 
z"/>
<path fill="#FFFFFF" opacity="1.000000" stroke="none" 
	d="
M284.036743,179.638367 
	C282.324646,180.161041 280.762177,180.366043 279.016602,180.286652 
	C278.833496,172.423889 278.833496,164.845520 278.833496,157.280228 
	C284.906677,157.216583 288.286591,159.827835 290.182709,165.599594 
	C292.100800,171.438309 290.598419,174.876175 284.036743,179.638367 
z"/>
<path fill="#00BDE4" opacity="1.000000" stroke="none" 
	d="
M453.833344,364.001221 
	C455.561279,379.128174 448.743317,390.405487 437.018463,399.748596 
	C434.869202,399.474457 433.415405,399.032593 431.960938,399.030396 
	C404.701782,398.989136 377.442474,398.980652 350.183380,399.045074 
	C348.419250,399.049225 346.656616,399.699402 344.893280,400.049072 
	C334.755157,391.942749 329.275696,381.329895 328.077606,368.484802 
	C327.966522,367.293488 328.675323,366.025665 329.542603,364.396820 
	C371.332306,364.000580 412.582825,364.000885 453.833344,364.001221 
z"/>
<path fill="#00C1E2" opacity="1.000000" stroke="none" 
	d="
M453.902496,363.606445 
	C412.582825,364.000885 371.332306,364.000580 329.624207,364.000793 
	C329.714203,351.952606 335.557556,343.027191 345.625153,336.827881 
	C358.664398,328.798767 371.889282,329.089722 385.089050,336.573242 
	C386.076385,337.132996 387.246948,337.620819 387.900024,338.473267 
	C390.159760,341.423035 392.156006,340.920868 394.794250,338.783386 
	C407.299194,328.651947 426.522644,329.025208 439.364960,338.676270 
	C447.787170,345.005585 451.815948,353.421448 453.902496,363.606445 
z"/>
<path fill="#00B8E6" opacity="1.000000" stroke="none" 
	d="
M345.031982,400.355896 
	C346.656616,399.699402 348.419250,399.049225 350.183380,399.045074 
	C377.442474,398.980652 404.701782,398.989136 431.960938,399.030396 
	C433.415405,399.032593 434.869202,399.474457 436.713989,399.881165 
	C421.639099,415.126709 406.173462,430.202759 390.085266,445.885712 
	C375.538757,431.239319 360.354706,415.951019 345.031982,400.355896 
z"/>
<path fill="#00C0E2" opacity="1.000000" stroke="none" 
	d="
M74.573166,344.939697 
	C77.326431,345.262848 79.702171,345.936646 82.079224,345.941345 
	C88.546402,345.954132 95.014130,345.683838 101.766891,345.211243 
	C115.247719,350.014832 124.115211,358.955963 126.595726,373.574707 
	C120.836182,373.990479 115.501320,373.995209 110.166451,373.999939 
	C102.751892,359.895233 92.070824,357.624512 80.522903,361.176514 
	C72.027229,363.789703 66.950478,370.276581 65.971924,379.481934 
	C65.838020,380.741547 65.333130,381.961700 64.461288,383.600067 
	C59.003983,384.000183 54.085377,384.000366 49.166775,384.000549 
	C46.622829,366.699860 60.416241,348.742737 74.573166,344.939697 
z"/>
<path fill="#00B9E5" opacity="1.000000" stroke="none" 
	d="
M49.097042,384.464600 
	C54.085377,384.000366 59.003983,384.000183 64.377907,384.000305 
	C64.833229,395.462555 64.833229,406.924530 64.833229,418.740845 
	C66.890198,418.842316 68.487511,418.939056 70.086235,418.996765 
	C75.692726,419.199127 77.974228,422.579102 77.799034,427.197296 
	C77.627464,431.719879 75.980331,434.698029 70.175438,434.961670 
	C65.854637,435.157928 61.517708,435.017883 57.188114,434.996826 
	C51.812145,434.970703 49.011395,432.221832 49.006577,426.893188 
	C48.993931,412.905029 49.017918,398.916840 49.097042,384.464600 
z"/>
<path fill="#00B7E6" opacity="1.000000" stroke="none" 
	d="
M127.833298,405.001526 
	C127.888809,412.626953 128.003143,420.252563 127.975494,427.877686 
	C127.961243,431.806152 124.803009,434.928497 120.871239,434.980927 
	C115.233421,435.056152 109.593719,435.023407 103.955055,434.993408 
	C98.946716,434.966736 96.036461,432.090332 95.999969,427.209412 
	C95.960487,421.929321 98.772629,419.048187 104.035057,419.003876 
	C106.494431,418.983154 108.954124,419.000275 112.027031,419.000275 
	C112.027031,414.435303 112.027031,410.179810 112.552200,405.462341 
	C117.996010,405.000793 122.914650,405.001160 127.833298,405.001526 
z"/>
<path fill="#00BEE3" opacity="1.000000" stroke="none" 
	d="
M159.096649,354.464172 
	C164.196671,354.333374 169.226761,354.666626 174.686249,355.020691 
	C175.068817,369.052185 175.021942,383.062897 174.904175,397.537720 
	C169.914642,398.001373 164.996017,398.000946 159.622040,398.001160 
	C159.120056,383.643921 159.073395,369.286102 159.096649,354.464172 
z"/>
<path fill="#00BCE4" opacity="1.000000" stroke="none" 
	d="
M127.904060,404.537445 
	C122.914650,405.001160 117.996010,405.000793 112.622040,405.000977 
	C111.777382,396.177338 111.418648,387.351562 110.964081,378.530762 
	C110.899643,377.280518 110.368881,376.054321 110.110214,374.408478 
	C115.501320,373.995209 120.836182,373.990479 126.646645,373.974915 
	C127.414772,377.170197 127.901703,380.372833 127.959656,383.583191 
	C128.082901,390.411102 127.983162,397.243073 127.904060,404.537445 
z"/>
<path fill="#00B9E5" opacity="1.000000" stroke="none" 
	d="
M262.833252,398.001221 
	C263.002472,410.104492 253.924759,421.991669 240.071121,426.536743 
	C221.895615,432.499634 198.849548,419.516663 198.553375,398.417328 
	C204.330475,398.000885 209.581863,398.001526 214.995850,398.331390 
	C216.827606,403.661865 219.696930,407.794250 224.679703,409.798279 
	C233.897476,413.505585 242.079391,408.902466 246.623657,398.000305 
	C252.331436,398.000397 257.582336,398.000793 262.833252,398.001221 
z"/>
<path fill="#00BCE4" opacity="1.000000" stroke="none" 
	d="
M262.903503,397.551300 
	C257.582336,398.000793 252.331436,398.000397 246.553650,397.565430 
	C246.017731,396.300171 246.005493,395.469452 246.000107,394.638702 
	C245.936523,384.827332 237.075882,377.755127 227.628525,379.976135 
	C218.404266,382.144714 215.451035,386.305237 214.833267,398.002197 
	C209.581863,398.001526 204.330475,398.000885 198.622925,398.000732 
	C197.392593,389.637817 198.352509,381.741577 204.915009,375.359131 
	C206.155930,375.680115 206.793503,375.967682 207.431625,375.968933 
	C222.426895,375.997803 237.422363,376.021210 252.417328,375.951385 
	C253.628967,375.945740 254.837448,375.260681 256.047394,374.891357 
	C261.476318,381.321655 263.528320,388.805054 262.903503,397.551300 
z"/>
<path fill="#00BEE3" opacity="1.000000" stroke="none" 
	d="
M255.914154,374.586609 
	C254.837448,375.260681 253.628967,375.945740 252.417328,375.951385 
	C237.422363,376.021210 222.426895,375.997803 207.431625,375.968933 
	C206.793503,375.967682 206.155930,375.680115 205.232605,375.211670 
	C208.655701,371.742462 211.904709,367.431213 216.190216,365.728058 
	C221.439972,363.641724 222.779343,360.762756 222.097168,355.435669 
	C227.085266,355.000031 232.004059,355.000000 237.378174,355.000061 
	C237.888855,356.495422 238.038391,357.994568 237.978622,359.485291 
	C237.874771,362.076355 238.756439,363.001068 241.437149,364.292542 
	C246.619736,366.789276 251.042938,370.862244 255.914154,374.586609 
z"/>
<path fill="#00DBD9" opacity="1.000000" stroke="none" 
	d="
M214.626221,165.732910 
	C220.360107,163.272751 220.550034,158.245056 220.928436,153.584305 
	C221.407227,147.686813 223.778793,144.956360 229.221924,145.000595 
	C234.462585,145.043182 236.614975,148.006042 237.077713,154.026474 
	C238.042007,166.572052 233.440811,176.242859 221.984375,181.317642 
	C207.675507,187.655975 190.633423,180.654999 186.746582,164.968842 
	C185.330994,159.256012 183.441513,152.260864 188.623489,147.272491 
	C190.521362,145.445511 194.919220,144.753433 197.519821,145.588684 
	C199.541458,146.237976 200.860352,149.932999 201.898987,152.512894 
	C202.723999,154.562134 202.376465,157.056274 203.030518,159.206589 
	C204.911011,165.389053 207.950439,167.102478 214.626221,165.732910 
z"/>
<path fill="#00DBD9" opacity="1.000000" stroke="none" 
	d="
M124.705788,183.669327 
	C117.676888,183.049957 111.116478,181.912094 105.971008,176.996414 
	C101.746780,172.960846 98.589745,168.282639 98.058311,162.334457 
	C97.748169,158.863113 97.915504,155.338776 98.023758,151.843094 
	C98.149765,147.774078 101.450066,145.005997 105.969498,145.000565 
	C110.482826,144.995132 113.589188,147.784500 114.051811,151.776184 
	C114.441177,155.135727 114.565163,158.860367 116.164978,161.642227 
	C117.507851,163.977280 120.821777,166.581421 123.242012,166.561111 
	C126.755348,166.531616 130.691895,164.679871 131.771988,160.370178 
	C132.442688,157.693985 132.765625,154.902573 132.964691,152.142685 
	C133.280304,147.767242 136.369873,144.970566 141.167984,145.000580 
	C145.618851,145.028427 148.712814,147.875473 149.017639,151.978485 
	C149.757538,161.938263 148.172379,170.876816 139.871780,177.787933 
	C135.438568,181.479065 130.469849,182.792786 124.705788,183.669327 
z"/>
<path fill="#FFFFFF" opacity="1.000000" stroke="none" 
	d="
M214.995850,398.331390 
	C215.451035,386.305237 218.404266,382.144714 227.628525,379.976135 
	C237.075882,377.755127 245.936523,384.827332 246.000107,394.638702 
	C246.005493,395.469452 246.017731,396.300171 246.096771,397.565765 
	C242.079391,408.902466 233.897476,413.505585 224.679703,409.798279 
	C219.696930,407.794250 216.827606,403.661865 214.995850,398.331390 
z"/>
</svg>